<svg xmlns="http://www.w3.org/2000/svg" xmlns:xlink="http://www.w3.org/1999/xlink" width="507.061" height="66.289" viewBox="0 0 507.061 66.289">
  <defs>
    <clipPath id="clip-path">
      <rect id="Rectángulo_1608" data-name="Rectángulo 1608" width="507.061" height="66.289" fill="none"/>
    </clipPath>
  </defs>
  <g id="Grupo_6178" data-name="Grupo 6178" transform="translate(0 0)">
    <g id="Grupo_6177" data-name="Grupo 6177" transform="translate(0 0)" clip-path="url(#clip-path)">
      <path id="Trazado_1439" data-name="Trazado 1439" d="M133.925,60.213c0,5.428-4.242,8.228-9.711,8.228H114.12V38.755h9.457c5.471,0,8.821,3.222,8.821,7.677a6.45,6.45,0,0,1-4.411,6.233v.127c3.519.975,5.938,3.392,5.938,7.421M116.367,41.046v10.9h7.21c4.2,0,6.573-2.289,6.573-5.511,0-3.182-2.375-5.386-6.573-5.386Zm15.31,19.167c0-4.24-3.266-6.064-7.463-6.064h-7.847V66.192h7.847c4.2,0,7.463-1.781,7.463-5.979" transform="translate(-11.031 -3.746)" fill="#086955"/>
      <path id="Trazado_1440" data-name="Trazado 1440" d="M161.57,66.192v2.248H145.2V38.755h15.986v2.291H147.449v10.9h12.764v2.248H147.449v12Z" transform="translate(-14.035 -3.746)" fill="#03181d"/>
      <path id="Trazado_1441" data-name="Trazado 1441" d="M189.02,66.192v2.248H172.948V38.755h2.29V66.192Z" transform="translate(-16.717 -3.746)" fill="#03181d"/>
      <path id="Trazado_1442" data-name="Trazado 1442" d="M216.439,66.192v2.248H200.367V38.755h2.291V66.192Z" transform="translate(-19.367 -3.746)" fill="#03181d"/>
      <path id="Trazado_1443" data-name="Trazado 1443" d="M255.42,53.543a15,15,0,1,1-29.982,0,15,15,0,1,1,29.982,0m-2.248,0a12.748,12.748,0,1,0-25.486,0,12.748,12.748,0,1,0,25.486,0" transform="translate(-21.79 -3.691)" fill="#03181d"/>
      <path id="Trazado_1444" data-name="Trazado 1444" d="M301.618,60.127H288.09L285,68.44h-2.418l11.068-29.685h2.418L307.131,68.44h-2.417Zm-.848-2.289L294.875,42.02l-5.938,15.818Z" transform="translate(-27.313 -3.746)" fill="#086955"/>
      <path id="Trazado_1445" data-name="Trazado 1445" d="M338.249,60.213c0,5.428-4.24,8.228-9.711,8.228H318.446V38.755H327.9c5.47,0,8.819,3.222,8.819,7.677a6.447,6.447,0,0,1-4.409,6.233v.127c3.519.975,5.936,3.392,5.936,7.421M320.694,41.046v10.9h7.21c4.2,0,6.572-2.289,6.572-5.511,0-3.182-2.375-5.386-6.572-5.386ZM336,60.213c0-4.24-3.265-6.064-7.464-6.064h-7.845V66.192h7.845c4.2,0,7.464-1.781,7.464-5.979" transform="translate(-30.78 -3.746)" fill="#03181d"/>
      <path id="Trazado_1446" data-name="Trazado 1446" d="M378.1,53.543a15,15,0,1,1-29.983,0,15,15,0,1,1,29.983,0m-2.248,0a12.748,12.748,0,1,0-25.486,0,12.748,12.748,0,1,0,25.486,0" transform="translate(-33.648 -3.691)" fill="#03181d"/>
      <path id="Trazado_1447" data-name="Trazado 1447" d="M418.238,52.356v16.03h-1.485L416.2,62.11c-2.078,4.155-6.022,6.827-11.662,6.827a15.1,15.1,0,0,1-15.011-15.394A15.06,15.06,0,0,1,404.54,38.192a14.681,14.681,0,0,1,11.62,5.6l-1.909,1.229a12.477,12.477,0,0,0-9.711-4.58,12.826,12.826,0,0,0-12.764,13.1,12.8,12.8,0,0,0,12.764,13.1c7.336,0,11.323-5.259,11.45-12.045H405.346V52.356Z" transform="translate(-37.651 -3.691)" fill="#03181d"/>
      <path id="Trazado_1448" data-name="Trazado 1448" d="M448.571,60.127H435.043l-3.1,8.313H429.53L440.6,38.755h2.417L454.084,68.44h-2.418Zm-.849-2.289L441.827,42.02,435.89,57.838Z" transform="translate(-41.517 -3.746)" fill="#03181d"/>
      <path id="Trazado_1449" data-name="Trazado 1449" d="M488.893,53.6c0,8.481-6.15,14.843-14.63,14.843H465.4V38.755h8.863c8.481,0,14.63,6.361,14.63,14.843m-2.248,0c0-7.209-5.131-12.552-12.382-12.552h-6.615V66.192h6.615c7.251,0,12.382-5.342,12.382-12.594" transform="translate(-44.984 -3.746)" fill="#03181d"/>
      <path id="Trazado_1450" data-name="Trazado 1450" d="M529.605,53.543a15,15,0,1,1-29.98,0,14.994,14.994,0,1,1,29.98,0m-2.247,0a12.748,12.748,0,1,0-25.487,0,12.748,12.748,0,1,0,25.487,0" transform="translate(-48.292 -3.691)" fill="#03181d"/>
      <path id="Trazado_1451" data-name="Trazado 1451" d="M559.22,60.413c0,3.944-2.8,8.524-9.668,8.524-5.344,0-8.948-3.393-9.923-6.786l2.163-.677c.679,2.417,3.307,5.174,7.761,5.174s7.378-2.417,7.378-6.235c0-3.562-2.8-4.621-7.081-5.768-3.944-1.059-9.033-2.544-9.033-8.184a8.307,8.307,0,0,1,8.523-8.267,8.489,8.489,0,0,1,8.566,6.19l-2.2.552a6.119,6.119,0,0,0-6.362-4.5A6.011,6.011,0,0,0,543.1,46.46c0,3.6,2.841,4.793,7.336,5.98,4.028,1.1,8.779,2.5,8.779,7.972" transform="translate(-52.159 -3.691)" fill="#03181d"/>
      <path id="Trazado_1452" data-name="Trazado 1452" d="M129.741,8.953v9.329h-.864l-.322-3.652a7.149,7.149,0,0,1-6.787,3.974,8.786,8.786,0,0,1-8.736-8.959A8.765,8.765,0,0,1,121.769.71a8.545,8.545,0,0,1,6.763,3.257l-1.111.715a7.261,7.261,0,0,0-5.652-2.665,7.465,7.465,0,0,0-7.429,7.626,7.45,7.45,0,0,0,7.429,7.627c4.269,0,6.59-3.061,6.664-7.01h-6.2V8.953Z" transform="translate(-10.925 -0.068)" fill="#03181d"/>
      <path id="Trazado_1453" data-name="Trazado 1453" d="M148.015,18.313,143.5,11.032c-.32.025-.666.05-1.011.05h-3.5v7.231h-1.308V1.037h4.813c3.776,0,6.046,1.851,6.046,5.034a4.6,4.6,0,0,1-3.652,4.715l4.665,7.528Zm-5.528-8.539c3.035,0,4.739-1.258,4.739-3.7,0-2.467-1.7-3.7-4.739-3.7h-3.5v7.4Z" transform="translate(-13.307 -0.1)" fill="#03181d"/>
      <path id="Trazado_1454" data-name="Trazado 1454" d="M167.837,1.037V11.872c0,4.072-2.369,6.762-6.121,6.762-3.776,0-6.121-2.69-6.121-6.762V1.037H156.9V11.872c0,3.332,1.776,5.43,4.812,5.43s4.789-2.1,4.789-5.43V1.037Z" transform="translate(-15.039 -0.1)" fill="#03181d"/>
      <path id="Trazado_1455" data-name="Trazado 1455" d="M186.672,6.393c0,3.183-2.172,5.355-5.949,5.355H176.9v6.565h-1.332V1.037h5.157c3.777,0,5.949,2.172,5.949,5.356m-1.333,0c0-2.444-1.58-4.023-4.615-4.023H176.9v8.046h3.825c3.035,0,4.615-1.579,4.615-4.023" transform="translate(-16.97 -0.1)" fill="#03181d"/>
      <path id="Trazado_1456" data-name="Trazado 1456" d="M209.815,9.644a8.727,8.727,0,1,1-17.448,0,8.726,8.726,0,1,1,17.448,0m-1.307,0a7.42,7.42,0,1,0-14.834,0,7.42,7.42,0,1,0,14.834,0" transform="translate(-18.594 -0.068)" fill="#03181d"/>
      <path id="Trazado_1457" data-name="Trazado 1457" d="M32.87,30.473A10.316,10.316,0,0,0,25.8,28.021H21.826q-.325,0-.325.276V42a3.261,3.261,0,0,0,1.663,2.852,6.487,6.487,0,0,0,3.59,1.076,8.529,8.529,0,0,0,6.3-2.639,8.909,8.909,0,0,0,2.6-6.5,8.023,8.023,0,0,0-2.79-6.316" transform="translate(-2.078 -2.708)" fill="#086955"/>
      <path id="Trazado_1458" data-name="Trazado 1458" d="M22.021,24.891h6.154a5.28,5.28,0,0,0,4.041-1.776,5.726,5.726,0,0,0,1.639-3.977q0-3.927-2.226-5.691A9.278,9.278,0,0,0,25.7,11.682a33.473,33.473,0,0,0-3.428.126.927.927,0,0,0-.65.325,1.482,1.482,0,0,0-.174.826V24.416q0,.476.575.475" transform="translate(-2.073 -1.129)" fill="#086955"/>
      <path id="Trazado_1459" data-name="Trazado 1459" d="M39.663,45.636c-.157.145-.311.293-.481.43q.251-.209.481-.43" transform="translate(-3.787 -4.411)" fill="#155743"/>
      <path id="Trazado_1460" data-name="Trazado 1460" d="M18.383,9.232v.034L23.7,9.1q14.309,0,14.309,8.455,0,3.577-3.7,5.953a6.839,6.839,0,0,1-.947.531l.706-.28A15.515,15.515,0,0,1,38.832,28.2a8.995,8.995,0,0,1,1.7,3.208l2.207-6.388a.294.294,0,0,0,.023-.124l-.274-.827c0-.083.033-.125.1-.125h5a.755.755,0,0,0,.138.05.23.23,0,0,1,.138.151L58.45,53.834a12.978,12.978,0,0,1,.564,1.226c.008.023.02.043.028.067A33.136,33.136,0,0,0,11.38,9.163c.387-.009.766-.021,1.168-.021Z" transform="translate(-1.1 0)" fill="#086955"/>
      <path id="Trazado_1461" data-name="Trazado 1461" d="M46.968,60.146v-.6q0-.2.926-.25t1.526-.1Q52.9,58.82,52.9,56.844a1.467,1.467,0,0,0-.05-.35L47.219,40.838q-.026-.049-.1-.225a1.082,1.082,0,0,0-1.051-.85l-5,.061a1.087,1.087,0,0,0-1.1.7c-.051.117-.145.311-.145.328L34.035,56.769v.225a1.489,1.489,0,0,0,.675,1.175,6.552,6.552,0,0,0,4.1,1.177h.65a.177.177,0,0,1,.2.2v.6a.178.178,0,0,1-.2.2H26.68a.177.177,0,0,1-.2-.2v-.6c0-.134.107-.2.325-.2a4.834,4.834,0,0,0,4.629-3.653l3.892-11.266a14.018,14.018,0,0,1-2.59,1.385,20.03,20.03,0,0,1-7.762,1.493H6.186V46.035H24.973a18.773,18.773,0,0,0,7.276-1.4,12.318,12.318,0,0,0,2.86-1.615,12.513,12.513,0,0,1-2.727,1.535,18.463,18.463,0,0,1-7.23,1.4H7.089a.2.2,0,0,1-.13-.043H6.24a.194.194,0,0,1-.205-.185v-.687a.2.2,0,0,1,.205-.185h1.5l.033,0c1.554-.191,6.652-.685,6.575-3.508l-.006-.945s-.121-26.36-.184-26.442c-.128-.167.288-2.059-.061-2.109-.066-.009-.182-.02-.321-.031-.376,0-.9-.02-1.554-.07-.549-.015-1.191-.025-1.908-.025-.529,0-1.033.03-1.521.074A33.137,33.137,0,0,0,53.6,60.347H47.169a.178.178,0,0,1-.2-.2" transform="translate(0 -1.133)" fill="#086955"/>
      <path id="Trazado_1462" data-name="Trazado 1462" d="M48.032,32.882c-.168-.449-.292-.675-.376-.675s-.217.233-.4.7l-2.24,6.49a1.408,1.408,0,0,0-.1.537c0,.192.126.287.375.287h4.737q.45,0,.45-.375a1.232,1.232,0,0,0-.1-.449Z" transform="translate(-4.341 -3.113)" fill="#086955"/>
      <path id="Trazado_1463" data-name="Trazado 1463" d="M36.62,42.2c.082-.078.168-.154.247-.235L39.3,34.912a7.868,7.868,0,0,0-1.806-4.93,19.614,19.614,0,0,0-5.271-4.657L33,25.015a6.727,6.727,0,0,0,.947-.53q3.7-2.375,3.7-5.954,0-8.455-14.309-8.455l-5.317.164V45.759s-7.269-.006-10.323,0a.2.2,0,0,0,.131.043H25.9a18.44,18.44,0,0,0,7.23-1.4,12.476,12.476,0,0,0,2.727-1.535c.1-.076.192-.155.287-.234.17-.137.323-.285.48-.431m-16.5-29.4a1.484,1.484,0,0,1,.174-.826.931.931,0,0,1,.65-.325,33.473,33.473,0,0,1,3.428-.126A9.278,9.278,0,0,1,30.3,13.291q2.225,1.763,2.226,5.691a5.724,5.724,0,0,1-1.639,3.977,5.28,5.28,0,0,1-4.04,1.776H20.692q-.575,0-.575-.475ZM31.725,41.559a8.523,8.523,0,0,1-6.3,2.639,6.484,6.484,0,0,1-3.589-1.076,3.261,3.261,0,0,1-1.663-2.852V26.562c0-.183.107-.276.324-.276H24.47a10.316,10.316,0,0,1,7.067,2.452,8.024,8.024,0,0,1,2.79,6.316,8.907,8.907,0,0,1-2.6,6.5" transform="translate(-0.745 -0.974)" fill="#fff"/>
      <path id="Trazado_1464" data-name="Trazado 1464" d="M15.086,11.823c-.336-.025-.865-.051-1.555-.07.652.05,1.177.067,1.555.07" transform="translate(-1.308 -1.136)" fill="#fff"/>
      <path id="Trazado_1465" data-name="Trazado 1465" d="M60.775,57.688c-.008-.023-.02-.043-.028-.066a13.079,13.079,0,0,0-.563-1.226L49.6,26.7a.23.23,0,0,0-.138-.151.763.763,0,0,1-.138-.049h-5c-.066,0-.1.042-.1.124l.274.827a.284.284,0,0,1-.023.125l-2.207,6.388a10.1,10.1,0,0,1,.408,2.878,10.25,10.25,0,0,1-4.517,9.013L34.267,57.122a4.834,4.834,0,0,1-4.629,3.653c-.217,0-.324.066-.324.2v.6a.177.177,0,0,0,.2.2H42.3a.177.177,0,0,0,.2-.2v-.6a.177.177,0,0,0-.2-.2h-.65a6.555,6.555,0,0,1-4.1-1.177,1.489,1.489,0,0,1-.675-1.175V58.2l5.785-15.919c0-.017.1-.211.145-.328a1.087,1.087,0,0,1,1.106-.7l5-.061a1.081,1.081,0,0,1,1.051.85c.05.117.083.192.1.225l5.628,15.656a1.461,1.461,0,0,1,.049.35q0,1.977-3.477,2.351c-.4.034-.909.067-1.526.1s-.926.117-.926.25v.6a.178.178,0,0,0,.2.2h6.432a33.356,33.356,0,0,0,4.341-4.087M48.519,39.669H43.783q-.375,0-.375-.288a1.433,1.433,0,0,1,.1-.537l2.241-6.488q.275-.7.4-.7c.083,0,.208.226.375.676l2.345,6.512a1.245,1.245,0,0,1,.1.45q0,.375-.45.376" transform="translate(-2.833 -2.561)" fill="#fff"/>
      <path id="Trazado_1466" data-name="Trazado 1466" d="M42.423,37.568,39.987,44.62a9.222,9.222,0,0,0,2.449-6.707c0-.117-.009-.229-.013-.345" transform="translate(-3.865 -3.631)" fill="#fff"/>
      <path id="Trazado_1467" data-name="Trazado 1467" d="M13.164,11.736c-.23-.017-.472-.038-.731-.065a14.568,14.568,0,0,0-1.776-.1H9.938c-.068.071-.137.141-.2.213.489-.044.992-.073,1.521-.073.717,0,1.359.01,1.908.024" transform="translate(-0.941 -1.118)" fill="#fff"/>
      <path id="Trazado_1468" data-name="Trazado 1468" d="M7.536,45.767v-.6c0-.134.116-.2.35-.2a15.139,15.139,0,0,0,2.6-.251q4.579-.775,4.579-3.152V11.824s-.237.011-.642.006c.138.011.254.021.32.031.35.05-.066,1.942.062,2.108.063.083.183,26.442.183,26.442l.006.946c.077,2.822-5.023,3.316-6.575,3.508a.2.2,0,0,1-.033,0h-1.5a.2.2,0,0,0-.205.185v.688a.194.194,0,0,0,.2.185h.72a.181.181,0,0,1-.07-.157" transform="translate(-0.646 -1.143)" fill="#fff"/>
      <path id="Trazado_1469" data-name="Trazado 1469" d="M14.767,10.356l3.589-.111v-.033l-5.835-.09c-.4,0-.781.012-1.168.02-.082.079-.165.156-.248.236Z" transform="translate(-1.073 -0.978)" fill="#fff"/>
      <path id="Trazado_1470" data-name="Trazado 1470" d="M10.9,10.4l-.64,0-1.1.025a.177.177,0,0,0-.2.2v.625a.177.177,0,0,0,.2.2h.706Q10.37,10.92,10.9,10.4" transform="translate(-0.866 -1.005)" fill="#fff"/>
      <path id="Trazado_1471" data-name="Trazado 1471" d="M18.02,45.777V10.258l-3.589.111-3.661.021q-.53.516-1.035,1.055h.719a14.558,14.558,0,0,1,1.776.1c.259.027.5.048.731.065.69.019,1.22.045,1.555.07.406,0,.642-.006.642-.006V41.414q0,2.377-4.578,3.152a15.14,15.14,0,0,1-2.6.25q-.351,0-.35.2v.6a.183.183,0,0,0,.07.157c3.054,0,10.323,0,10.323,0" transform="translate(-0.737 -0.991)" fill="#fff"/>
      <path id="Trazado_1472" data-name="Trazado 1472" d="M36.364,26.3l-.706.28c-.013.005-.028.015-.041.021-.276.117-.429.183-.463.2a18,18,0,0,1,5.19,4.153,8.259,8.259,0,0,1,1.863,4.8l.624-1.809a8.983,8.983,0,0,0-1.7-3.207A15.492,15.492,0,0,0,36.364,26.3" transform="translate(-3.398 -2.542)" fill="#086955"/>
      <path id="Trazado_1473" data-name="Trazado 1473" d="M36.364,26.3l-.706.28c-.013.005-.028.015-.041.021-.276.117-.429.183-.463.2a18,18,0,0,1,5.19,4.153,8.259,8.259,0,0,1,1.863,4.8l.624-1.809a8.983,8.983,0,0,0-1.7-3.207A15.492,15.492,0,0,0,36.364,26.3Z" transform="translate(-3.398 -2.542)" fill="none" stroke="#086955" stroke-width="0.04"/>
      <path id="Trazado_1474" data-name="Trazado 1474" d="M36.537,45.613q-.23.221-.481.43c-.1.079-.187.16-.287.235a12.311,12.311,0,0,1-2.859,1.615,18.776,18.776,0,0,1-7.276,1.4H6.848v1.271H25.635A20.03,20.03,0,0,0,33.4,49.068a14.018,14.018,0,0,0,2.59-1.385l.789-2.283c-.075.074-.161.141-.238.213" transform="translate(-0.662 -4.388)" fill="#086955"/>
      <path id="Trazado_1475" data-name="Trazado 1475" d="M36.537,45.613q-.23.221-.481.43c-.1.079-.187.16-.287.235a12.311,12.311,0,0,1-2.859,1.615,18.776,18.776,0,0,1-7.276,1.4H6.848v1.271H25.635A20.03,20.03,0,0,0,33.4,49.068a14.018,14.018,0,0,0,2.59-1.385l.789-2.283C36.7,45.474,36.615,45.541,36.537,45.613Z" transform="translate(-0.662 -4.388)" fill="none" stroke="#086955" stroke-width="0.04"/>
      <path id="Trazado_1476" data-name="Trazado 1476" d="M39.714,45.611c.078-.072.164-.139.238-.213l.007-.022c-.078.08-.164.156-.246.235" transform="translate(-3.839 -4.386)" fill="#155743"/>
      <path id="Trazado_1477" data-name="Trazado 1477" d="M39.714,45.611c.078-.072.164-.139.238-.213l.007-.022C39.882,45.456,39.8,45.532,39.714,45.611Z" transform="translate(-3.839 -4.386)" fill="none" stroke="#155743" stroke-width="0.04"/>
      <path id="Trazado_1478" data-name="Trazado 1478" d="M38.865,46.347c.1-.075.191-.156.287-.235-.095.079-.189.159-.287.235" transform="translate(-3.757 -4.457)" fill="#155743"/>
      <path id="Trazado_1479" data-name="Trazado 1479" d="M38.865,46.347c.1-.075.191-.156.287-.235C39.057,46.191,38.963,46.271,38.865,46.347Z" transform="translate(-3.757 -4.457)" fill="none" stroke="#155743" stroke-width="0.04"/>
      <path id="Trazado_1480" data-name="Trazado 1480" d="M40.121,31.58a7.868,7.868,0,0,1,1.806,4.93l.25-.724a8.259,8.259,0,0,0-1.863-4.8,18.013,18.013,0,0,0-5.19-4.154c.033-.015.187-.082.463-.2.013-.005.028-.015.041-.021l-.778.309a19.6,19.6,0,0,1,5.271,4.657" transform="translate(-3.369 -2.572)" fill="#086955"/>
      <path id="Trazado_1481" data-name="Trazado 1481" d="M40.121,31.58a7.868,7.868,0,0,1,1.806,4.93l.25-.724a8.259,8.259,0,0,0-1.863-4.8,18.013,18.013,0,0,0-5.19-4.154c.033-.015.187-.082.463-.2.013-.005.028-.015.041-.021l-.778.309A19.6,19.6,0,0,1,40.121,31.58Z" transform="translate(-3.369 -2.572)" fill="none" stroke="#086955" stroke-width="0.04"/>
      <path id="Trazado_1482" data-name="Trazado 1482" d="M42.614,37.278a9.541,9.541,0,0,1-2.721,7.094l-.789,2.283a10.252,10.252,0,0,0,4.517-9.013,10.1,10.1,0,0,0-.409-2.878l-.624,1.809c.015.231.026.465.026.7" transform="translate(-3.78 -3.36)" fill="#155743"/>
      <path id="Trazado_1483" data-name="Trazado 1483" d="M42.614,37.278a9.541,9.541,0,0,1-2.721,7.094l-.789,2.283a10.252,10.252,0,0,0,4.517-9.013,10.1,10.1,0,0,0-.409-2.878l-.624,1.809C42.6,36.8,42.614,37.039,42.614,37.278Z" transform="translate(-3.78 -3.36)" fill="#086955" stroke="#086955" stroke-width="0.04"/>
      <path id="Trazado_1484" data-name="Trazado 1484" d="M42.435,37.837a9.222,9.222,0,0,1-2.449,6.707l-.007.022a9.542,9.542,0,0,0,2.72-7.093c0-.239-.011-.473-.026-.706l-.25.724c0,.115.013.228.013.345" transform="translate(-3.864 -3.554)" fill="#086955"/>
      <path id="Trazado_1485" data-name="Trazado 1485" d="M42.435,37.837a9.222,9.222,0,0,1-2.449,6.707l-.007.022a9.542,9.542,0,0,0,2.72-7.093c0-.239-.011-.473-.026-.706l-.25.724C42.426,37.606,42.435,37.719,42.435,37.837Z" transform="translate(-3.864 -3.554)" fill="none" stroke="#086955" stroke-width="0.04"/>
    </g>
  </g>
</svg>
