<svg xmlns="http://www.w3.org/2000/svg" width="37" height="37" viewBox="0 0 37 37">
  <g id="Grupo_6160" data-name="Grupo 6160" transform="translate(0 -0.074)">
    <rect id="Rectángulo_1593" data-name="Rectángulo 1593" width="37" height="37" rx="6" transform="translate(0 0.074)" fill="#00637d"/>
    <g id="Grupo_6145" data-name="Grupo 6145" transform="translate(3.883 3.346)">
      <path id="Trazado_1407" data-name="Trazado 1407" d="M0,0H29.447V29.447H0Z" fill="none"/>
      <path id="Trazado_1408" data-name="Trazado 1408" d="M22.907,18.04l-3.116-.356a2.442,2.442,0,0,0-2.012.7l-2.258,2.258a18.46,18.46,0,0,1-8.086-8.086l2.27-2.27a2.442,2.442,0,0,0,.7-2.012l-.356-3.092A2.456,2.456,0,0,0,7.607,3.01H5.485A2.435,2.435,0,0,0,3.031,5.55a20.848,20.848,0,0,0,19.5,19.5,2.435,2.435,0,0,0,2.54-2.454V20.469A2.432,2.432,0,0,0,22.907,18.04Z" transform="translate(0.687 0.683)" fill="#fff"/>
    </g>
  </g>
</svg>
