<svg xmlns="http://www.w3.org/2000/svg" width="37" height="37" viewBox="0 0 37 37">
  <g id="Grupo_6161" data-name="Grupo 6161" transform="translate(0 -0.235)">
    <rect id="Rectángulo_1593" data-name="Rectángulo 1593" width="37" height="37" rx="6" transform="translate(0 0.235)" fill="#00637d"/>
    <g id="Grupo_6148" data-name="Grupo 6148" transform="translate(4.111 4.111)">
      <path id="Trazado_1409" data-name="Trazado 1409" d="M0,0H28.148V28.148H0Z" fill="none"/>
      <path id="Trazado_1410" data-name="Trazado 1410" d="M23.111,4H4.346A2.353,2.353,0,0,0,2,6.346V20.42a2.353,2.353,0,0,0,2.346,2.346H23.111a2.353,2.353,0,0,0,2.346-2.346V6.346A2.353,2.353,0,0,0,23.111,4Zm-.469,4.985-7.67,4.8a2.323,2.323,0,0,1-2.486,0l-7.67-4.8A1,1,0,1,1,5.87,7.3l7.858,4.914L21.586,7.3a1,1,0,1,1,1.056,1.689Z" transform="translate(0.346 0.691)" fill="#fff"/>
    </g>
  </g>
</svg>
