<svg xmlns="http://www.w3.org/2000/svg" width="37" height="37" viewBox="0 0 37 37">
  <g id="Grupo_6162" data-name="Grupo 6162" transform="translate(0 0.003)">
    <rect id="Rectángulo_1593" data-name="Rectángulo 1593" width="37" height="37" rx="6" transform="translate(0 -0.003)" fill="#00637d"/>
    <path id="Trazado_1411" data-name="Trazado 1411" d="M17.885,6.781a9.095,9.095,0,0,1,6.9,15.066l-.362.465L19.8,27.546l-.369.47-1.521,1.708-1.5-1.705-.364-.472-4.486-5.069c-.012-.013-.024-.025-.037-.037s-.052-.054-.094-.1A9.108,9.108,0,0,1,17.885,6.781Zm0,4.673A4.443,4.443,0,1,0,22.332,15.9,4.451,4.451,0,0,0,17.887,11.455Zm.025,1.875a2.54,2.54,0,0,1,2.744,2.562A2.606,2.606,0,0,1,17.912,18.7a2.631,2.631,0,0,1-2.694-2.808A2.572,2.572,0,0,1,17.912,13.33Z" transform="translate(0.294 0.618)" fill="#fff"/>
  </g>
</svg>
