<svg xmlns="http://www.w3.org/2000/svg" xmlns:xlink="http://www.w3.org/1999/xlink" width="70.503" height="70.522" viewBox="0 0 70.503 70.522">
  <defs>
    <clipPath id="clip-path">
      <rect id="Rectángulo_32" data-name="Rectángulo 32" width="70.503" height="70.522" fill="#00637d" stroke="#fff" stroke-width="0.8"/>
    </clipPath>
  </defs>
  <g id="Grupo_20" data-name="Grupo 20" transform="translate(0)">
    <g id="Grupo_15" data-name="Grupo 15" transform="translate(0)" clip-path="url(#clip-path)">
      <path id="Trazado_63" data-name="Trazado 63" d="M30.839,0H39.65c.254,1.276.491,2.556.78,3.823.041.179.313.352.516.441,1.089.474,2.2.9,3.281,1.388a.828.828,0,0,0,.932-.045c1.017-.691,2.057-1.347,3.1-2.024,1.889,1.887,3.728,3.745,5.6,5.574a.783.783,0,0,1,.2,1.063c-.355.724-.642,1.481-.971,2.256,3.646.263,5.913,1.644,7.37,4.4a10.9,10.9,0,0,1,.967,5.065,8.36,8.36,0,0,1-3.146,7.13c-.14.112-.3.379-.258.492a.783.783,0,0,0,.492.342c1.125.3,2.259.577,3.387.868a7.346,7.346,0,0,0,2.449.583,5.805,5.805,0,0,0,2.31-1.158c1.183-.8,2.463-.67,3.834-.6v.768c0,5.046-.01,10.093.015,15.139a.978.978,0,0,1-.639,1.033c-6.4,3.176-12.779,6.378-19.174,9.554a1.086,1.086,0,0,0-.715,1.014,3.3,3.3,0,0,1-2.766,3.067.708.708,0,0,0-.678.687,3.246,3.246,0,0,1-1.935,2.5c-1.139.544-1.133.54-1.722,1.741A3.493,3.493,0,0,1,39.825,67.1a3.465,3.465,0,0,1-2.242,3.146,3.63,3.63,0,0,1-4.05-.874,1.068,1.068,0,0,0-1.408-.291A3.451,3.451,0,0,1,27.6,67.244a11.006,11.006,0,0,1-.376-1.267A3.625,3.625,0,0,1,23.9,62.839c-.024-.14-.291-.3-.47-.343A3.615,3.615,0,0,1,20.5,59.509a.7.7,0,0,0-.455-.433,3.586,3.586,0,0,1-2.969-3.024.786.786,0,0,0-.268-.492c-1.024-.642-2.066-1.254-3.234-1.955.125,1.166-.624,1.044-1.266.982a10.724,10.724,0,0,1-2.143-.358c-2.03-.63-4.035-1.339-6.055-2C2.745,51.785,1.37,51.369,0,50.94V27.26a9.2,9.2,0,0,1,7.107,1.98c.055.041.124.063.176.107a3.955,3.955,0,0,0,4.483.634c.251-.114.487-.259.73-.39a3.17,3.17,0,0,0-.478-.685,8.243,8.243,0,0,1-2.571-3.824A14.3,14.3,0,0,1,9.1,20.445a7.876,7.876,0,0,1,6.46-7.789c.574-.112,1.165-.133,1.825-.2-.321-.77-.6-1.516-.942-2.23a.781.781,0,0,1,.194-1.065c1.048-.995,2.053-2.034,3.075-3.057q1.257-1.259,2.516-2.524c1.077.7,2.083,1.382,3.122,2.008a1.1,1.1,0,0,0,.843.068c1.154-.432,2.291-.912,3.424-1.4a.8.8,0,0,0,.451-.428c.283-1.27.523-2.549.776-3.825M68.176,32.047c-.3.145-.5.237-.7.341C60.995,35.8,54.5,39.19,48.045,42.645a4.441,4.441,0,0,1-3.552.337c-2.04-.6-4.09-1.16-6.132-1.747a5.344,5.344,0,0,0-4.007.3c-2,1-4.015,1.994-6.014,3.007a1.706,1.706,0,0,0-.817,2.413,1.556,1.556,0,0,0,2.322.414c1.282-.757,2.554-1.53,3.832-2.293a4.783,4.783,0,0,1,2.811-.733A5.4,5.4,0,0,1,39.8,45.972c2.938,2.667,5.894,5.314,8.838,7.975.252.228.442.385.827.192q9.146-4.6,18.3-9.175a.836.836,0,0,0,.39-.611c.023-4.059.017-8.118.017-12.3M32.708,39.759c-.292-.108-.419-.159-.549-.2a11.639,11.639,0,0,0-5.724-.8c-2.88.5-5.726,1.2-8.592,1.784a.751.751,0,0,0-.646.654c-.336,1.235-.7,2.461-1.054,3.692-.611,2.149-1.218,4.3-1.833,6.468l3.574,2.142a30.786,30.786,0,0,1,2.565-2.705,3.478,3.478,0,0,1,5.37,1.308,11.159,11.159,0,0,1,.408,1.316,3.669,3.669,0,0,1,3.366,3.4,3.619,3.619,0,0,1,3.337,3.095.648.648,0,0,0,.435.385,4.614,4.614,0,0,1,2.429,1.543,25.463,25.463,0,0,0,3.22,2.749,1.206,1.206,0,0,0,1.7-.347,1.194,1.194,0,0,0-.374-1.64c-.361-.318-.74-.616-1.11-.925L34.5,57.721l1.476-1.757c.214.174.356.287.5.4,1.869,1.554,3.73,3.118,5.611,4.657a1.365,1.365,0,0,0,1.972-.1c.443-.569.323-1.189-.373-1.786-.766-.657-1.547-1.3-2.321-1.943l-3.445-2.881,1.455-1.752c.244.19.444.338.635.5q2.616,2.179,5.23,4.362c.817.682,1.684.728,2.2.118.5-.591.339-1.276-.471-2.006q-4.447-4.008-8.9-8.013a2.475,2.475,0,0,0-3.42-.329c-1.26.749-2.52,1.5-3.773,2.258a3.735,3.735,0,0,1-3.036.44,3.585,3.585,0,0,1-2.755-3.013,3.711,3.711,0,0,1,1.779-4.135c1.121-.661,2.317-1.194,3.48-1.783.748-.379,1.5-.755,2.369-1.194m-8.743-2.994a3.658,3.658,0,0,0,.444-.036,13.815,13.815,0,0,1,6.8.156c2.258.647,4.521,1.274,6.784,1.9q3.6,1,7.206,1.984a5.571,5.571,0,0,0,.738.126c.454.06.67-.1.658-.6-.028-1.215.01-2.432-.015-3.648a3.364,3.364,0,0,0-2.807-3.48c-1.863-.468-3.723-.947-5.593-1.382-.544-.127-.751-.352-.708-.926a17.346,17.346,0,0,0,0-2.27A.878.878,0,0,1,38,27.674a5.338,5.338,0,0,0,2.832-4.156,15.66,15.66,0,0,0-.091-3.974,5.621,5.621,0,0,0-5.25-4.712,5.475,5.475,0,0,0-5.665,4.156,16.265,16.265,0,0,0-.233,3.276,5.747,5.747,0,0,0,2.982,5.492,1.07,1.07,0,0,1,.41.748c.054.776-.028,1.563.034,2.338.049.614-.2.826-.757.955-1.87.434-3.731.909-5.593,1.379a3.3,3.3,0,0,0-2.7,3.589m37.172-3.649-.024-.162c-1.544-.387-3.079-.811-4.635-1.142-.649-.138-.861-.406-.807-1.052a15.447,15.447,0,0,0,0-2.131.936.936,0,0,1,.556-.976,5.356,5.356,0,0,0,2.783-4.039,18.448,18.448,0,0,0,.04-3.433A5.847,5.847,0,0,0,54.2,14.871a5.452,5.452,0,0,0-6.153,4.083,16.008,16.008,0,0,0-.261,3.817A4.715,4.715,0,0,0,49.813,27,2.841,2.841,0,0,1,51.2,30.171a2.3,2.3,0,0,0,0,.686c.118.627-.218.823-.758.94-1.019.221-2.028.494-3.2.784,2.065,1.984,1.572,4.505,1.646,6.981l12.241-6.445M18.176,38.106c.978-.22,1.9-.464,2.843-.623.466-.079.608-.259.591-.713a5.541,5.541,0,0,1,1.363-3.926,1.1,1.1,0,0,0,.123-.292c-1.153-.295-2.265-.559-3.36-.879a.736.736,0,0,1-.421-.531c-.046-.869,0-1.742-.031-2.613a.786.786,0,0,1,.456-.815A5.278,5.278,0,0,0,22.5,24.2a10.405,10.405,0,0,0-.185-5.562,5.608,5.608,0,0,0-5.266-3.8,5.4,5.4,0,0,0-5.355,4,16.929,16.929,0,0,0-.283,3.333,5.753,5.753,0,0,0,3.007,5.608.906.906,0,0,1,.368.64c.042.892-.006,1.789.027,2.682.016.419-.167.552-.531.632-.627.138-1.244.318-2.016.52,1.888,1.1,3.617,2.13,5.366,3.122a.888.888,0,0,1,.557.959c-.051.566-.012,1.139-.012,1.774M27.21,21.611c.062-.821.056-1.653.2-2.46a7.568,7.568,0,0,1,5.149-6.17A7.61,7.61,0,0,1,40.544,14.6c3.1,2.679,3.23,8.067,2.039,11.192a7.791,7.791,0,0,1-2.465,3.251,1.088,1.088,0,0,0-.3.552c-.016.062.184.239.31.272,1.3.339,2.613.668,3.925.975a1.66,1.66,0,0,0,.743-.023q1.8-.437,3.585-.92c.175-.047.474-.211.462-.272a1.3,1.3,0,0,0-.31-.612,16.821,16.821,0,0,1-1.343-1.371c-2.307-3.168-2.106-6.631-1.134-10.176a1.242,1.242,0,0,0,.05-.81,11.928,11.928,0,0,0-9.393-6.283c-5.252-.543-9.36,1.554-12.213,6.043a1.3,1.3,0,0,0-.084,1.264,11.836,11.836,0,0,1-.151,8.392,7.7,7.7,0,0,1-2.308,2.95,1.1,1.1,0,0,0-.308.61c-.011.059.292.22.469.267,1.192.319,2.386.633,3.586.917a1.976,1.976,0,0,0,.878,0c1.223-.289,2.44-.606,3.653-.933.168-.045.41-.182.432-.308a.73.73,0,0,0-.243-.5c-.429-.444-.927-.827-1.32-1.3a8.7,8.7,0,0,1-1.892-6.169m-4.471-6.793c3-4.347,7.116-6.823,12.494-6.83s9.485,2.471,12.486,6.765c.821-.524,1.576-.993,2.315-1.487a1.125,1.125,0,0,0,.376-.455c.339-.75.663-1.507.964-2.272.064-.163.1-.451,0-.546-1.13-1.159-2.286-2.293-3.449-3.446-.949.616-1.838,1.221-2.76,1.771a.91.91,0,0,1-.776.042,18.551,18.551,0,0,0-5.435-2.229c-.369-.083-.5-.276-.564-.645-.192-1.051-.444-2.09-.674-3.138H32.771c-.232,1.054-.5,2.073-.665,3.109a.749.749,0,0,1-.676.7A16.722,16.722,0,0,0,26.2,8.333a.719.719,0,0,1-.922-.012c-.884-.608-1.8-1.173-2.765-1.8-1.13,1.142-2.247,2.256-3.337,3.4a.688.688,0,0,0-.082.595c.3.791.634,1.568.98,2.339a1.146,1.146,0,0,0,.384.448c.732.5,1.479.986,2.283,1.517M7.143,50.805l4.117-16.469c-2.679-1.562-5.283-3.09-7.9-4.59a3.674,3.674,0,0,0-1.043-.21v2.441q0,8.286-.01,16.573a.749.749,0,0,0,.614.875c1.4.42,2.779.9,4.226,1.382m2.192.738,2.3.751c.575-2.007,1.123-3.914,1.667-5.822.821-2.876,1.649-5.75,2.445-8.633.078-.282.072-.782-.1-.9-.7-.5-1.474-.893-2.314-1.379l-4,15.985m21.456,8.725a4.294,4.294,0,0,0-.855-.976,1.118,1.118,0,0,0-1.39.215c-.676.649-1.351,1.3-1.985,1.992a1.219,1.219,0,0,0,0,1.782,1.237,1.237,0,0,0,1.736,0c.707-.648,1.378-1.339,2.025-2.047a4.155,4.155,0,0,0,.468-.962M19.2,55.634a4.819,4.819,0,0,0,.844,1.021,1.08,1.08,0,0,0,1.386-.174c.67-.622,1.326-1.26,1.955-1.923a1.274,1.274,0,0,0,.057-1.888,1.248,1.248,0,0,0-1.836.124c-.612.583-1.218,1.176-1.788,1.8a6.464,6.464,0,0,0-.618,1.039M23.876,60.3c.368-.128.635-.144.783-.284.811-.769,1.628-1.536,2.369-2.369a1.1,1.1,0,0,0-.161-1.55,1.079,1.079,0,0,0-1.5-.146,20.017,20.017,0,0,0-2.353,2.378,1.455,1.455,0,0,0-.037,1.254c.144.327.617.508.9.718m7.07,6.746c.076-.024.3-.027.414-.139a35.811,35.811,0,0,0,2.55-2.561,1.039,1.039,0,0,0-.223-1.427,1.075,1.075,0,0,0-1.494-.144,18.482,18.482,0,0,0-2.4,2.423c-.588.741.1,1.851,1.158,1.847m3.619.135c.605.611,1.21,1.287,2.161.9a1.4,1.4,0,0,0,.705-.962c.126-.975-.777-1.252-1.3-1.759l-1.57,1.822" transform="translate(0 -0.001)" fill="#00637d" stroke="#fff" stroke-width="0.8"/>
    </g>
  </g>
</svg>
